<?xml version="1.0" encoding="utf-8"?>
<!-- Generator: Adobe Illustrator 17.0.0, SVG Export Plug-In . SVG Version: 6.00 Build 0)  -->
<!DOCTYPE svg PUBLIC "-//W3C//DTD SVG 1.1//EN" "http://www.w3.org/Graphics/SVG/1.1/DTD/svg11.dtd">
<svg version="1.1" id="Layer_1" xmlns="http://www.w3.org/2000/svg" xmlns:xlink="http://www.w3.org/1999/xlink" x="0px" y="0px"
	 width="15.042px" height="16.625px" viewBox="0 0 15.042 16.625" enable-background="new 0 0 15.042 16.625" xml:space="preserve">
<g id="aShape_17_copy_1_">
	<path fill="#010101" d="M11.917,5.44H9.969L9.862,4.882C9.752,4.164,9.441,3.52,8.959,3C8.894,2.926,8.832,2.866,8.768,2.808
		C7.984,2.119,6.679,2.206,5.993,2.99C5.498,3.518,5.188,4.161,5.083,4.861L4.969,5.44H3.022l0.105-0.78
		C3.283,3.517,3.782,2.467,4.57,1.625c0.081-0.09,0.173-0.182,0.27-0.27C5.56,0.703,6.493,0.343,7.466,0.343
		c1.104,0,2.163,0.469,2.903,1.288c0.787,0.833,1.289,1.883,1.444,3.03L11.917,5.44z"/>
</g>
<g>
	<path fill="#010101" d="M14.85,16.546H0.172V4.784H14.85V16.546z M2.172,14.546H12.85V6.784H2.172V14.546z"/>
</g>
</svg>
