<?xml version="1.0" encoding="utf-8"?>
<!-- Generator: Adobe Illustrator 17.0.0, SVG Export Plug-In . SVG Version: 6.00 Build 0)  -->
<!DOCTYPE svg PUBLIC "-//W3C//DTD SVG 1.1//EN" "http://www.w3.org/Graphics/SVG/1.1/DTD/svg11.dtd">
<svg version="1.1" id="Layer_1" xmlns="http://www.w3.org/2000/svg" xmlns:xlink="http://www.w3.org/1999/xlink" x="0px" y="0px"
	 width="65.162px" height="16px" viewBox="0 0 65.162 16" enable-background="new 0 0 65.162 16" xml:space="preserve">
<g>
	
		<rect x="-2.29" y="7.101" transform="matrix(-0.7084 -0.7058 0.7058 -0.7084 8.0363 19.3464)" fill="#DD1E32" width="20.61" height="1.825"/>
	
		<rect x="7.101" y="-2.292" transform="matrix(-0.7083 -0.7059 0.7059 -0.7083 8.0322 19.3468)" fill="#DD1E32" width="1.825" height="20.611"/>
</g>
<g>
	<path fill="#DD1E32" d="M27.644,6.64c-0.02-0.266-0.083-0.505-0.19-0.718s-0.249-0.395-0.425-0.545s-0.382-0.266-0.618-0.346
		s-0.489-0.12-0.759-0.12c-0.383,0-0.727,0.067-1.031,0.202s-0.565,0.334-0.782,0.598S23.455,6.3,23.34,6.687
		s-0.173,0.83-0.173,1.33s0.059,0.944,0.176,1.331s0.282,0.712,0.495,0.976s0.471,0.465,0.773,0.604s0.642,0.208,1.017,0.208
		c0.285,0,0.546-0.04,0.782-0.12s0.442-0.199,0.618-0.357s0.316-0.352,0.422-0.58s0.172-0.493,0.199-0.794h1.693
		c-0.047,0.531-0.171,1.003-0.372,1.415s-0.465,0.76-0.791,1.043s-0.704,0.499-1.134,0.647s-0.896,0.223-1.4,0.223
		c-0.641,0-1.218-0.108-1.731-0.325s-0.951-0.524-1.313-0.923s-0.64-0.881-0.835-1.447s-0.293-1.199-0.293-1.899
		c0-0.699,0.099-1.332,0.296-1.898s0.478-1.05,0.841-1.45s0.802-0.709,1.315-0.926s1.087-0.325,1.72-0.325
		c0.48,0,0.934,0.077,1.359,0.231s0.804,0.372,1.134,0.653s0.602,0.62,0.814,1.017s0.343,0.837,0.39,1.321H27.644z"/>
	<path fill="#DD1E32" d="M36.808,12.47h-5.736V3.575h1.658v7.366h4.078V12.47z"/>
	<path fill="#DD1E32" d="M42.181,3.435c0.621,0,1.193,0.109,1.717,0.328s0.975,0.528,1.354,0.929s0.675,0.883,0.888,1.447
		s0.319,1.19,0.319,1.878c0,0.68-0.104,1.301-0.313,1.864s-0.503,1.046-0.882,1.45s-0.83,0.719-1.354,0.943s-1.1,0.337-1.729,0.337
		s-1.205-0.111-1.729-0.334s-0.975-0.535-1.354-0.938s-0.673-0.886-0.882-1.45s-0.313-1.188-0.313-1.873
		c0-0.691,0.106-1.319,0.319-1.884s0.51-1.047,0.891-1.447s0.833-0.709,1.356-0.926S41.563,3.435,42.181,3.435z M42.175,11.134
		c0.379,0,0.728-0.071,1.046-0.214s0.592-0.348,0.82-0.615s0.406-0.594,0.533-0.979s0.19-0.822,0.19-1.31
		c0-0.492-0.064-0.931-0.193-1.315s-0.308-0.709-0.536-0.973s-0.5-0.465-0.814-0.604s-0.655-0.208-1.022-0.208
		c-0.375,0-0.722,0.07-1.04,0.211s-0.594,0.344-0.826,0.609s-0.413,0.591-0.542,0.976s-0.193,0.819-0.193,1.304
		c0,0.488,0.064,0.925,0.193,1.31s0.308,0.711,0.536,0.979s0.5,0.473,0.814,0.615S41.8,11.134,42.175,11.134z"/>
	<path fill="#DD1E32" d="M51.638,12.611c-0.637,0-1.192-0.083-1.667-0.249s-0.872-0.397-1.192-0.694s-0.563-0.651-0.729-1.063
		s-0.257-0.864-0.272-1.356h1.611c0.027,0.316,0.104,0.591,0.231,0.823s0.288,0.425,0.483,0.577s0.419,0.265,0.671,0.337
		s0.521,0.108,0.806,0.108c0.27,0,0.516-0.027,0.738-0.082s0.413-0.132,0.571-0.231s0.28-0.222,0.366-0.366s0.129-0.307,0.129-0.486
		c0-0.184-0.042-0.34-0.126-0.469s-0.22-0.244-0.407-0.346s-0.434-0.194-0.738-0.278s-0.68-0.171-1.125-0.261
		c-0.508-0.114-0.945-0.246-1.313-0.396S49.006,7.85,48.77,7.645s-0.411-0.441-0.524-0.709s-0.17-0.575-0.17-0.923
		c0-0.375,0.078-0.72,0.234-1.034s0.378-0.586,0.665-0.814s0.63-0.407,1.028-0.536s0.842-0.193,1.33-0.193
		c0.508,0,0.972,0.069,1.392,0.208s0.782,0.338,1.087,0.598s0.544,0.578,0.718,0.955s0.267,0.804,0.278,1.28h-1.594
		c-0.117-1.012-0.729-1.518-1.834-1.518c-0.539,0-0.951,0.091-1.236,0.272s-0.428,0.431-0.428,0.747
		c0,0.129,0.031,0.241,0.094,0.337s0.162,0.184,0.299,0.264s0.313,0.153,0.527,0.22s0.475,0.131,0.779,0.193
		c0.266,0.055,0.538,0.115,0.817,0.182s0.553,0.146,0.82,0.24s0.52,0.208,0.756,0.343s0.444,0.298,0.624,0.489
		s0.321,0.417,0.425,0.677s0.155,0.563,0.155,0.911c0,0.41-0.084,0.785-0.252,1.125s-0.401,0.632-0.7,0.876
		s-0.655,0.435-1.069,0.571S52.126,12.611,51.638,12.611z"/>
	<path fill="#DD1E32" d="M63.562,12.47h-6.797V3.575h6.604v1.529h-4.945v2.01h4.629v1.518h-4.629v2.309h5.139V12.47z"/>
</g>
</svg>
