<?xml version="1.0" encoding="utf-8"?>
<!-- Generator: Adobe Illustrator 17.0.0, SVG Export Plug-In . SVG Version: 6.00 Build 0)  -->
<!DOCTYPE svg PUBLIC "-//W3C//DTD SVG 1.1//EN" "http://www.w3.org/Graphics/SVG/1.1/DTD/svg11.dtd">
<svg version="1.1" id="Capa_1" xmlns="http://www.w3.org/2000/svg" xmlns:xlink="http://www.w3.org/1999/xlink" x="0px" y="0px"
	 width="23.639px" height="42.203px" viewBox="0 0 23.639 42.203" enable-background="new 0 0 23.639 42.203" xml:space="preserve">
<path fill="#F04E4C" d="M21.959,2.597c-1.246-1.246-2.904-1.932-4.667-1.932c-1.764,0-3.423,0.688-4.672,1.938l-0.451,0.451
	l-0.46-0.461C10.457,1.34,8.797,0.651,7.032,0.651c-1.761,0-3.417,0.687-4.663,1.933c-1.251,1.25-1.937,2.909-1.931,4.67
	c0,1.757,0.689,3.415,1.941,4.667l9.137,9.136c0.17,0.171,0.404,0.269,0.64,0.269c0.24,0,0.473-0.096,0.64-0.263l9.155-9.124
	c1.249-1.25,1.938-2.909,1.938-4.671C23.891,5.502,23.205,3.844,21.959,2.597z M22.073,7.27c0.005,1.276-0.493,2.48-1.401,3.388
	l-8.517,8.484l-8.499-8.499C2.75,9.737,2.251,8.533,2.251,7.254c0-1.283,0.497-2.484,1.4-3.384c0.903-0.903,2.104-1.4,3.38-1.4
	c1.282,0,2.487,0.5,3.395,1.406l1.1,1.1c0.345,0.345,0.939,0.344,1.283,0l1.09-1.09c0.906-0.907,2.11-1.406,3.39-1.406
	c1.274,0,2.476,0.498,3.384,1.401C21.575,4.784,22.073,5.987,22.073,7.27z"/>
<path fill="#141F47" d="M21.959,23.723c-1.246-1.246-2.903-1.933-4.667-1.933s-3.423,0.688-4.672,1.938l-0.451,0.451l-0.46-0.46
	c-1.251-1.252-2.912-1.941-4.677-1.941c-1.761,0-3.417,0.686-4.663,1.932c-1.251,1.252-1.938,2.911-1.932,4.672
	c0,1.758,0.689,3.415,1.941,4.667l9.137,9.137c0.17,0.171,0.404,0.269,0.64,0.269c0.24,0,0.472-0.096,0.64-0.264l9.155-9.123
	c1.249-1.248,1.938-2.907,1.938-4.671C23.891,26.628,23.206,24.969,21.959,23.723z M22.073,28.395
	c0.005,1.276-0.493,2.479-1.401,3.388l-8.517,8.483l-8.499-8.498c-0.907-0.906-1.406-2.11-1.406-3.39c0-1.283,0.497-2.484,1.4-3.384
	c0.904-0.903,2.104-1.401,3.38-1.401c1.281,0,2.487,0.499,3.395,1.406l1.1,1.1c0.345,0.344,0.939,0.344,1.283,0l1.09-1.09
	c0.906-0.906,2.11-1.405,3.39-1.405c1.274,0,2.477,0.497,3.384,1.4C21.575,25.908,22.073,27.112,22.073,28.395z"/>
</svg>
