<?xml version="1.0" encoding="utf-8"?>
<!-- Generator: Adobe Illustrator 17.0.0, SVG Export Plug-In . SVG Version: 6.00 Build 0)  -->
<!DOCTYPE svg PUBLIC "-//W3C//DTD SVG 1.1//EN" "http://www.w3.org/Graphics/SVG/1.1/DTD/svg11.dtd">
<svg version="1.1" id="Layer_1" xmlns="http://www.w3.org/2000/svg" xmlns:xlink="http://www.w3.org/1999/xlink" x="0px" y="0px"
	 width="24px" height="28px" viewBox="0 0 24 28" enable-background="new 0 0 24 28" xml:space="preserve">
<path id="fFB" fill="#FFFFFF" d="M94.733,30.646l-0.23,3.22h-3.09v11.17h-3.9v-11.17h-2.09v-3.22h2.09v-2.16
	c-0.098-1.151,0.135-2.306,0.67-3.33c0.714-1.072,1.944-1.685,3.23-1.61c1.256-0.059,2.515,0.076,3.73,0.4l-0.52,3.29
	c-0.546-0.162-1.111-0.253-1.68-0.27c-0.687-0.144-1.361,0.296-1.505,0.983c-0.013,0.062-0.021,0.124-0.025,0.187v2.51
	L94.733,30.646L94.733,30.646z"/>
<path id="rtwit" fill="#FFFFFF" d="M73.637-0.053c0.01,0.2,0.01,0.39,0.01,0.59c0,6.05-4.19,13.01-11.85,13.01
	c-2.291-0.006-4.523-0.723-6.39-2.05c0.328,0.04,0.659,0.06,0.99,0.06c1.907-0.006,3.747-0.702,5.18-1.96
	c-1.852-0.088-3.43-1.374-3.89-3.17c0.257,0.052,0.518,0.079,0.78,0.08c0.373,0.003,0.744-0.051,1.1-0.16
	c-2.021-0.532-3.407-2.391-3.34-4.48v-0.06c0.567,0.35,1.214,0.546,1.88,0.57c-1.181-0.904-1.867-2.313-1.85-3.8
	c-0.001-0.8,0.191-1.589,0.56-2.3c2.01,2.79,5.159,4.539,8.59,4.77c-0.073-0.342-0.11-0.69-0.11-1.04
	c-0.103-2.411,1.76-4.452,4.17-4.57c1.176,0.008,2.289,0.535,3.04,1.44c0.943-0.202,1.841-0.575,2.65-1.1
	c-0.292,1.031-0.94,1.924-1.83,2.52c0.831-0.107,1.638-0.35,2.39-0.72C75.169-1.516,74.465-0.714,73.637-0.053L73.637-0.053z"/>
<path id="jINS" fill="#FFFFFF" d="M18.305,3.255H5.695c-2.241,0.052-4.017,1.909-3.97,4.15v13.19
	c-0.047,2.241,1.729,4.098,3.97,4.15h12.61c2.241-0.052,4.017-1.909,3.97-4.15V7.405C22.321,5.164,20.546,3.307,18.305,3.255z
	 M9.065,11.795c1.069-1.621,3.25-2.068,4.871-0.999c0.397,0.262,0.737,0.602,0.999,0.999c0.673,0.991,0.86,2.234,0.51,3.38
	c-0.324,1.135-1.183,2.039-2.3,2.42c-1.925,0.61-3.981-0.457-4.591-2.382c-0.124-0.39-0.181-0.799-0.169-1.208
	C8.38,13.216,8.617,12.445,9.065,11.795z M20.275,20.595c0.026,1.112-0.855,2.034-1.967,2.06c-0.001,0-0.002,0-0.003,0H5.695
	c-1.112-0.024-1.994-0.945-1.97-2.057c0-0.001,0-0.002,0-0.003v-8.8h3.07c-0.399,1.031-0.513,2.15-0.33,3.24
	c0.368,2.325,2.108,4.195,4.4,4.73c3.099,0.577,6.078-1.467,6.656-4.565c0.073-0.394,0.105-0.794,0.094-1.194
	c-0.001-0.755-0.14-1.504-0.41-2.21h3.07L20.275,20.595L20.275,20.595z M20.305,6.725v3.17l-3.48,0.02l-0.01-3.65l3.03-0.01h0.46
	L20.305,6.725L20.305,6.725z"/>
</svg>
