<?xml version="1.0" encoding="utf-8"?>
<!-- Generator: Adobe Illustrator 17.0.0, SVG Export Plug-In . SVG Version: 6.00 Build 0)  -->
<!DOCTYPE svg PUBLIC "-//W3C//DTD SVG 1.1//EN" "http://www.w3.org/Graphics/SVG/1.1/DTD/svg11.dtd">
<svg version="1.1" id="Layer_1" xmlns="http://www.w3.org/2000/svg" xmlns:xlink="http://www.w3.org/1999/xlink" x="0px" y="0px"
	 width="12.333px" height="12.875px" viewBox="0 0 12.333 12.875" enable-background="new 0 0 12.333 12.875" xml:space="preserve">
<g>
	<path fill="#FFFFFF" d="M4.891,9.596c0-2.63-1.234-4.755-2.61-6.272C1.686,2.655,0.95,2.009,0.168,1.528v5.805
		c0,2.866,1.817,4.857,4.674,5.316c0.025-0.686,0.049-1.392,0.049-1.535V9.596z"/>
	<path fill="#FFFFFF" d="M3.292,1.867c0.951,1.093,2.185,2.671,2.63,4.35h0.04C6.55,4.538,7.319,3.364,8.411,2.13
		c0.572-0.637,1.493-1.372,2.412-1.925H9.652H7.949H4.261H3.619H1.304C2.168,0.796,2.926,1.459,3.292,1.867z"/>
	<path fill="#FFFFFF" d="M9.039,3.708C7.663,5.287,6.712,7.452,6.712,9.596v1.902c0,0.144,0.016,0.683,0.037,1.23
		c3.238-0.227,5.294-2.301,5.294-5.395V1.407C10.997,1.887,9.925,2.68,9.039,3.708z"/>
</g>
</svg>
