<?xml version="1.0" encoding="utf-8"?>
<!-- Generator: Adobe Illustrator 17.0.0, SVG Export Plug-In . SVG Version: 6.00 Build 0)  -->
<!DOCTYPE svg PUBLIC "-//W3C//DTD SVG 1.1//EN" "http://www.w3.org/Graphics/SVG/1.1/DTD/svg11.dtd">
<svg version="1.1" id="Layer_1" xmlns="http://www.w3.org/2000/svg" xmlns:xlink="http://www.w3.org/1999/xlink" x="0px" y="0px"
	 width="174.25px" height="23.625px" viewBox="49.723 -1.423 174.25 23.625" enable-background="new 49.723 -1.423 174.25 23.625"
	 xml:space="preserve">
<linearGradient id="XMLID_8_" gradientUnits="userSpaceOnUse" x1="855.276" y1="-1324.595" x2="855.276" y2="-1324.595" gradientTransform="matrix(1 0 0 -1 -868.8 -1157.198)">
	<stop  offset="0" style="stop-color:#4A7297"/>
	<stop  offset="0.0337" style="stop-color:#4A6F91"/>
	<stop  offset="0.3829" style="stop-color:#3D4C5B"/>
	<stop  offset="0.6714" style="stop-color:#2D3339"/>
	<stop  offset="0.8849" style="stop-color:#212324"/>
	<stop  offset="1" style="stop-color:#1B1B1C"/>
</linearGradient>
<path id="XMLID_4_" fill="url(#XMLID_8_)" d="M-13.524,167.397"/>
<text id="XMLID_5_" transform="matrix(1 0 0 1 147.277 193.3463)" fill="#336E84" font-family="'Fontastique-Fontastique'" font-size="29.816">JS Treasure</text>
<text id="XMLID_7_" transform="matrix(1 0 0 1 453.4213 279.8374)" fill="#336E84" font-family="'Bonkers'" font-size="29.816">JS Treasure</text>
<text id="XMLID_6_" transform="matrix(1 0 0 1 444.8578 242.5863)" fill="#336E84" font-family="'AvantGardeITCbyBT-Medium'" font-size="29.816">JS Treasure</text>
<g enable-background="new    ">
	<path fill="#25434C" d="M61.183,3.414h-3.548c-0.06-0.278-0.104-0.581-0.134-0.909s-0.044-0.651-0.044-0.969
		c0-0.636,0.06-1.242,0.179-1.818h7.901v15.742c0,1.094-0.174,2.023-0.521,2.788c-0.349,0.766-0.825,1.392-1.432,1.879
		s-1.322,0.84-2.146,1.059c-0.825,0.218-1.725,0.327-2.699,0.327c-0.338,0-0.76-0.029-1.267-0.089s-0.989-0.149-1.446-0.269
		c-0.02-0.139-0.035-0.278-0.045-0.417c-0.01-0.14-0.015-0.288-0.015-0.447c0-0.914,0.168-1.829,0.507-2.743
		c0.218,0.04,0.457,0.089,0.715,0.148s0.526,0.09,0.805,0.09c0.338,0,0.695-0.02,1.073-0.06c0.377-0.04,0.72-0.159,1.029-0.358
		c0.308-0.198,0.566-0.491,0.775-0.879c0.209-0.388,0.313-0.939,0.313-1.655V3.414z"/>
	<path fill="#25434C" d="M74.451,11.226c-0.676-0.258-1.282-0.541-1.819-0.849c-0.536-0.308-0.994-0.676-1.371-1.104
		c-0.378-0.427-0.671-0.939-0.88-1.535c-0.208-0.597-0.313-1.312-0.313-2.147c0-1.014,0.174-1.908,0.521-2.684
		c0.348-0.775,0.84-1.426,1.476-1.953c0.637-0.526,1.401-0.924,2.296-1.193c0.895-0.268,1.898-0.402,3.012-0.402
		c1.014,0,1.963,0.089,2.848,0.268c0.884,0.179,1.813,0.438,2.787,0.775c-0.119,1.153-0.438,2.286-0.954,3.399
		c-0.298-0.119-0.601-0.238-0.909-0.358c-0.309-0.119-0.636-0.218-0.983-0.298c-0.349-0.079-0.741-0.144-1.178-0.194
		c-0.438-0.049-0.935-0.075-1.491-0.075c-0.338,0-0.681,0.03-1.028,0.089c-0.349,0.06-0.661,0.169-0.939,0.328
		c-0.278,0.159-0.507,0.393-0.686,0.701C74.66,4.305,74.57,4.707,74.57,5.203c0,0.398,0.069,0.73,0.209,0.999
		c0.139,0.268,0.328,0.497,0.566,0.686c0.238,0.189,0.507,0.348,0.805,0.477c0.298,0.13,0.597,0.253,0.895,0.373l1.789,0.686
		c0.755,0.298,1.441,0.606,2.058,0.924c0.615,0.318,1.138,0.711,1.565,1.178c0.427,0.467,0.76,1.033,0.998,1.699
		c0.239,0.666,0.358,1.486,0.358,2.46c0,1.014-0.185,1.938-0.552,2.772c-0.368,0.835-0.899,1.551-1.596,2.146
		c-0.695,0.597-1.555,1.063-2.578,1.401c-1.024,0.338-2.202,0.507-3.533,0.507c-0.656,0-1.243-0.02-1.76-0.06
		s-1.009-0.104-1.476-0.193c-0.468-0.09-0.93-0.204-1.387-0.343s-0.935-0.309-1.431-0.507c0.06-0.576,0.168-1.178,0.327-1.804
		c0.159-0.627,0.348-1.258,0.567-1.894c0.834,0.338,1.619,0.592,2.355,0.76c0.734,0.17,1.521,0.254,2.355,0.254
		c1.252,0,2.235-0.233,2.951-0.701c0.716-0.467,1.073-1.178,1.073-2.132c0-0.477-0.085-0.874-0.253-1.192
		c-0.169-0.317-0.388-0.586-0.656-0.805s-0.571-0.402-0.909-0.552c-0.338-0.148-0.686-0.293-1.044-0.433L74.451,11.226z"/>
	<path fill="#25434C" d="M99.644,3.414h-5.338c-0.119-0.596-0.179-1.222-0.179-1.878c0-0.616,0.06-1.222,0.179-1.818h15.058
		c0.119,0.596,0.179,1.203,0.179,1.818c0,0.656-0.06,1.282-0.179,1.878h-5.337v17.74c-0.358,0.04-0.716,0.074-1.073,0.104
		c-0.358,0.029-0.706,0.045-1.044,0.045s-0.7-0.011-1.088-0.03s-0.78-0.06-1.178-0.119V3.414z"/>
	<path fill="#25434C" d="M110.676,5.74c0.299-0.06,0.582-0.104,0.85-0.134c0.269-0.03,0.562-0.045,0.88-0.045
		c0.298,0,0.591,0.02,0.88,0.06c0.288,0.04,0.571,0.089,0.85,0.149c0.06,0.1,0.114,0.244,0.164,0.433
		c0.049,0.189,0.094,0.388,0.134,0.596c0.04,0.209,0.075,0.417,0.104,0.626c0.03,0.209,0.055,0.383,0.074,0.522
		c0.438-0.616,0.974-1.167,1.61-1.655c0.636-0.487,1.432-0.73,2.386-0.73c0.198,0,0.427,0.01,0.686,0.03
		c0.258,0.02,0.447,0.05,0.566,0.089c0.039,0.199,0.069,0.428,0.09,0.686c0.02,0.258,0.029,0.527,0.029,0.805
		c0,0.338-0.015,0.706-0.045,1.104c-0.029,0.398-0.085,0.775-0.164,1.133c-0.219-0.04-0.462-0.06-0.73-0.06
		c-0.268,0-0.432,0-0.491,0c-0.339,0-0.716,0.035-1.134,0.104c-0.417,0.07-0.814,0.253-1.192,0.551
		c-0.378,0.298-0.69,0.746-0.939,1.341c-0.248,0.597-0.372,1.432-0.372,2.505v7.335c-0.358,0.06-0.716,0.099-1.073,0.119
		c-0.358,0.02-0.706,0.029-1.044,0.029s-0.682-0.01-1.028-0.029c-0.349-0.021-0.711-0.06-1.089-0.119V5.74z"/>
	<path fill="#25434C" d="M126.567,14.744c0.079,1.192,0.497,2.057,1.253,2.594c0.755,0.537,1.748,0.805,2.981,0.805
		c0.675,0,1.366-0.064,2.072-0.193c0.705-0.129,1.376-0.313,2.013-0.552c0.218,0.397,0.407,0.875,0.566,1.432
		c0.158,0.557,0.248,1.152,0.268,1.788c-1.55,0.597-3.3,0.895-5.247,0.895c-1.432,0-2.659-0.198-3.683-0.596
		s-1.858-0.949-2.504-1.655c-0.646-0.705-1.124-1.545-1.432-2.52c-0.309-0.974-0.462-2.037-0.462-3.19
		c0-1.133,0.159-2.195,0.477-3.189c0.318-0.994,0.79-1.858,1.417-2.594c0.626-0.735,1.401-1.317,2.325-1.745
		c0.925-0.427,2.002-0.641,3.235-0.641c1.073,0,2.027,0.189,2.862,0.566c0.835,0.378,1.545,0.895,2.132,1.55
		c0.586,0.656,1.028,1.437,1.326,2.341c0.299,0.904,0.447,1.873,0.447,2.906c0,0.378-0.015,0.751-0.044,1.118
		c-0.03,0.368-0.065,0.661-0.104,0.88H126.567z M132.62,11.792c-0.04-0.954-0.303-1.724-0.79-2.31s-1.168-0.88-2.042-0.88
		c-0.994,0-1.75,0.279-2.267,0.835c-0.517,0.557-0.825,1.342-0.924,2.355H132.62z"/>
	<path fill="#25434C" d="M148.631,11.018c0-0.477-0.079-0.865-0.238-1.163s-0.378-0.532-0.656-0.701
		c-0.278-0.168-0.621-0.283-1.028-0.343s-0.86-0.089-1.356-0.089c-1.073,0-2.217,0.208-3.429,0.626
		c-0.279-0.517-0.487-1.003-0.626-1.461c-0.14-0.457-0.209-1.003-0.209-1.64c0.874-0.298,1.749-0.517,2.624-0.656
		c0.874-0.139,1.688-0.208,2.444-0.208c2.067,0,3.683,0.497,4.846,1.491c1.162,0.994,1.744,2.584,1.744,4.771v8.944
		c-0.696,0.219-1.541,0.428-2.534,0.626c-0.995,0.198-2.117,0.298-3.37,0.298c-1.014,0-1.942-0.089-2.787-0.268
		c-0.846-0.18-1.57-0.478-2.177-0.895c-0.606-0.418-1.073-0.954-1.401-1.61s-0.492-1.461-0.492-2.415s0.204-1.754,0.611-2.4
		c0.407-0.646,0.935-1.162,1.58-1.55s1.366-0.666,2.162-0.835c0.795-0.169,1.59-0.254,2.385-0.254c0.576,0,1.213,0.03,1.908,0.09
		V11.018z M148.631,14.088c-0.238-0.04-0.497-0.074-0.774-0.104c-0.279-0.029-0.527-0.045-0.746-0.045
		c-0.974,0-1.744,0.175-2.311,0.522s-0.85,0.909-0.85,1.685c0,0.517,0.109,0.914,0.328,1.192c0.218,0.278,0.481,0.482,0.79,0.611
		c0.308,0.129,0.636,0.209,0.983,0.238c0.348,0.03,0.651,0.045,0.91,0.045c0.298,0,0.596-0.024,0.895-0.074
		c0.298-0.05,0.556-0.095,0.774-0.135V14.088z"/>
	<path fill="#25434C" d="M160.468,14.446c-1.113-0.317-1.982-0.79-2.608-1.416s-0.939-1.565-0.939-2.817
		c0-1.51,0.541-2.693,1.625-3.548c1.083-0.854,2.56-1.282,4.428-1.282c0.775,0,1.54,0.07,2.296,0.208
		c0.755,0.139,1.521,0.348,2.296,0.626c-0.04,0.517-0.14,1.054-0.298,1.61c-0.16,0.557-0.349,1.043-0.567,1.461
		c-0.477-0.199-1.004-0.373-1.58-0.522c-0.576-0.149-1.183-0.224-1.818-0.224c-0.676,0-1.203,0.104-1.58,0.313
		c-0.378,0.209-0.566,0.542-0.566,0.999c0,0.438,0.134,0.746,0.402,0.924s0.65,0.348,1.147,0.506l1.7,0.507
		c0.556,0.159,1.058,0.354,1.505,0.582s0.83,0.512,1.148,0.85c0.317,0.338,0.566,0.755,0.745,1.252s0.269,1.104,0.269,1.818
		c0,0.736-0.154,1.422-0.462,2.058c-0.309,0.637-0.756,1.188-1.342,1.655c-0.587,0.467-1.297,0.834-2.132,1.103
		s-1.779,0.402-2.833,0.402c-0.477,0-0.914-0.015-1.312-0.044c-0.398-0.03-0.78-0.08-1.148-0.149
		c-0.367-0.07-0.73-0.154-1.088-0.254c-0.357-0.099-0.745-0.228-1.163-0.388c0.04-0.536,0.135-1.077,0.283-1.624
		c0.149-0.547,0.343-1.078,0.582-1.596c0.655,0.259,1.276,0.452,1.863,0.581c0.586,0.13,1.197,0.194,1.834,0.194
		c0.277,0,0.581-0.024,0.909-0.074s0.631-0.14,0.909-0.269s0.512-0.299,0.701-0.507c0.188-0.209,0.283-0.482,0.283-0.82
		c0-0.477-0.145-0.819-0.433-1.028s-0.691-0.393-1.208-0.552L160.468,14.446z"/>
	<path fill="#25434C" d="M171.917,5.74c0.716-0.119,1.421-0.179,2.117-0.179c0.695,0,1.401,0.06,2.117,0.179v8.169
		c0,0.815,0.064,1.486,0.193,2.013c0.13,0.526,0.328,0.944,0.597,1.252c0.269,0.309,0.601,0.527,0.999,0.656
		c0.397,0.129,0.864,0.193,1.401,0.193c0.735,0,1.352-0.069,1.849-0.209V5.74c0.716-0.119,1.411-0.179,2.087-0.179
		c0.695,0,1.401,0.06,2.117,0.179v14.818c-0.637,0.22-1.477,0.433-2.52,0.642c-1.044,0.209-2.132,0.313-3.265,0.313
		c-1.014,0-1.988-0.079-2.923-0.238c-0.934-0.159-1.754-0.496-2.459-1.014c-0.706-0.517-1.268-1.271-1.685-2.266
		c-0.418-0.994-0.627-2.315-0.627-3.966V5.74z"/>
	<path fill="#25434C" d="M190.223,5.74c0.299-0.06,0.582-0.104,0.85-0.134c0.269-0.03,0.562-0.045,0.88-0.045
		c0.298,0,0.591,0.02,0.88,0.06c0.288,0.04,0.571,0.089,0.85,0.149c0.06,0.1,0.114,0.244,0.164,0.433
		c0.049,0.189,0.094,0.388,0.134,0.596c0.04,0.209,0.075,0.417,0.104,0.626c0.03,0.209,0.055,0.383,0.074,0.522
		c0.438-0.616,0.974-1.167,1.61-1.655c0.636-0.487,1.432-0.73,2.386-0.73c0.198,0,0.427,0.01,0.686,0.03
		c0.258,0.02,0.447,0.05,0.566,0.089c0.039,0.199,0.069,0.428,0.09,0.686c0.02,0.258,0.029,0.527,0.029,0.805
		c0,0.338-0.015,0.706-0.045,1.104c-0.029,0.398-0.085,0.775-0.164,1.133c-0.219-0.04-0.462-0.06-0.73-0.06
		c-0.268,0-0.432,0-0.491,0c-0.339,0-0.716,0.035-1.134,0.104c-0.417,0.07-0.814,0.253-1.192,0.551
		c-0.378,0.298-0.69,0.746-0.939,1.341c-0.248,0.597-0.372,1.432-0.372,2.505v7.335c-0.358,0.06-0.716,0.099-1.073,0.119
		c-0.358,0.02-0.706,0.029-1.044,0.029s-0.682-0.01-1.028-0.029c-0.349-0.021-0.711-0.06-1.089-0.119V5.74z"/>
	<path fill="#25434C" d="M206.115,14.744c0.079,1.192,0.497,2.057,1.253,2.594c0.755,0.537,1.748,0.805,2.981,0.805
		c0.675,0,1.366-0.064,2.072-0.193c0.705-0.129,1.376-0.313,2.013-0.552c0.218,0.397,0.407,0.875,0.566,1.432
		c0.158,0.557,0.248,1.152,0.268,1.788c-1.55,0.597-3.3,0.895-5.247,0.895c-1.432,0-2.659-0.198-3.683-0.596
		s-1.858-0.949-2.504-1.655c-0.646-0.705-1.124-1.545-1.432-2.52c-0.309-0.974-0.462-2.037-0.462-3.19
		c0-1.133,0.159-2.195,0.477-3.189c0.318-0.994,0.79-1.858,1.417-2.594c0.626-0.735,1.401-1.317,2.325-1.745
		c0.925-0.427,2.002-0.641,3.235-0.641c1.073,0,2.027,0.189,2.862,0.566c0.835,0.378,1.545,0.895,2.132,1.55
		c0.586,0.656,1.028,1.437,1.326,2.341c0.299,0.904,0.447,1.873,0.447,2.906c0,0.378-0.015,0.751-0.044,1.118
		c-0.03,0.368-0.065,0.661-0.104,0.88H206.115z M212.168,11.792c-0.04-0.954-0.303-1.724-0.79-2.31s-1.168-0.88-2.042-0.88
		c-0.994,0-1.75,0.279-2.267,0.835c-0.517,0.557-0.825,1.342-0.924,2.355H212.168z"/>
</g>
<text id="XMLID_1_" transform="matrix(1 0 0 1 444.0015 166.3713)" fill="#336E84" font-family="'BoostSSi'" font-size="29.816">JS Treasure</text>
<linearGradient id="XMLID_9_" gradientUnits="userSpaceOnUse" x1="1429.5281" y1="-1149.6838" x2="1477.2869" y2="-1187.7893" gradientTransform="matrix(1 0 0 -1 -868.8 -1157.198)">
	<stop  offset="0.3727" style="stop-color:#4A7297"/>
	<stop  offset="0.3938" style="stop-color:#4A6F91"/>
	<stop  offset="0.6129" style="stop-color:#3D4C5B"/>
	<stop  offset="0.7939" style="stop-color:#2D3339"/>
	<stop  offset="0.9278" style="stop-color:#212324"/>
	<stop  offset="1" style="stop-color:#1B1B1C"/>
</linearGradient>
<path id="XMLID_2_" fill="url(#XMLID_9_)" d="M608.121,3.642c0.075-0.03,0.133-0.072,0.19-0.072c2.69,0.003,5.38-0.06,8.054,0.387
	c2.8,0.468,5.001,1.903,6.756,4.065c0.808,0.995,1.507,2.076,2.289,3.092c0.503,0.654,0.981,0.908,1.477,0.341
	c0.226-0.258,0.449-0.749,0.353-1.021c-1.019-2.884-2.034-5.774-3.196-8.602c-0.636-1.549-1.729-3.825-3.17-4.754
	c-1.05-0.677-2.208-1.04-3.453-1.032c-4.062,0.028-8.124,0.08-12.185,0.13c-2.862,0.035-5.723,0.096-8.585,0.121
	c-3.473,0.031-6.947,0.078-10.42,0.045c-4.502-0.043-9.003-0.152-13.505-0.248c-1.723-0.037-3.446-0.115-5.169-0.172
	c-0.208-0.007-0.417-0.001-0.719-0.001c0.248,0.906,0.494,1.743,0.705,2.59c0.188,0.751,0.316,2.51,0.519,3.257
	c0.05,0.184,0.265,0.419,0.443,0.459c1.944,0.438,3.897,0.833,5.841,1.269c0.231,0.052,0.503,0.234,0.618,0.435
	c3.182,5.547,5.439,11.43,6.485,17.762c0.61,3.693,0.809,7.399,0.468,11.123c-0.211,2.306-0.613,4.583-1.753,6.65
	c-1.474,2.671-3.819,3.669-6.702,2.659c-1.389-0.486-2.664-1.307-3.973-2.01c-0.584-0.314-1.224-0.372-1.476-0.039
	c-0.553,0.734-0.508,1.215,0.185,1.78c2.76,2.251,5.584,4.409,8.898,5.805c1.581,0.666,3.209,1.099,4.962,0.87
	c2.157-0.282,3.738-1.432,4.912-3.192c1.384-2.075,2.045-4.417,2.298-6.861c0.692-6.688-0.525-13.138-2.591-19.461
	c-1.678-5.135-4.023-9.964-6.846-14.564c-0.16-0.261-0.317-0.525-0.541-0.897c0.335,0,0.539,0,0.743,0
	c7.686,0,15.372,0.005,23.059-0.012c0.513-0.001,0.73,0.128,0.833,0.65c1.34,6.771,2.639,13.551,4.074,20.301
	c1.457,6.851,3.149,13.648,5.117,20.374c0.192,0.656,0.541,1.023,1.117,1.214c1.93,0.64,3.868,1.252,5.804,1.873
	c0.14,0.045,0.283,0.078,0.425,0.117c0.664,0.18,1.268-0.128,1.492-0.789c0.039-0.115-0.013-0.283-0.069-0.406
	c-4.605-10.145-7.795-20.77-10.67-31.501c-1.02-3.807-2.027-7.618-3.039-11.427C608.15,3.851,608.14,3.748,608.121,3.642z"/>
<image overflow="visible" width="900" height="562" xlink:href="839AB46F.jpg"  transform="matrix(1 0 0 1 384 -476)">
</image>
</svg>
