<?xml version="1.0" encoding="utf-8"?>
<!-- Generator: Adobe Illustrator 17.0.0, SVG Export Plug-In . SVG Version: 6.00 Build 0)  -->
<!DOCTYPE svg PUBLIC "-//W3C//DTD SVG 1.1//EN" "http://www.w3.org/Graphics/SVG/1.1/DTD/svg11.dtd">
<svg version="1.1" id="Layer_1" xmlns="http://www.w3.org/2000/svg" xmlns:xlink="http://www.w3.org/1999/xlink" x="0px" y="0px"
	 width="42px" height="42px" viewBox="0 0 42 42" enable-background="new 0 0 42 42" xml:space="preserve">
<g>
	<path id="nShape_21_copy" fill="#122047" d="M18.507,28.916l7.806-7.78l-7.871-7.832l-1.152,1.145l6.7,6.687l-6.654,6.635
		L18.507,28.916z"/>
	<path fill="#122047" d="M35.058,7.004C27.295-0.815,14.664-0.86,6.845,6.903s-7.863,20.394-0.101,28.213
		c0.033,0.034,0.067,0.067,0.101,0.101c7.763,7.819,20.394,7.863,28.213,0.101c7.819-7.763,7.863-20.394,0.101-28.213
		C35.125,7.07,35.092,7.036,35.058,7.004z M33.278,33.55c-3.297,3.218-7.726,5.012-12.333,4.999
		c-4.627,0.02-9.068-1.822-12.321-5.112c-3.311-3.24-5.157-7.69-5.112-12.321C3.489,16.484,5.332,12.04,8.625,8.783
		c3.242-3.314,7.697-5.161,12.333-5.112c4.655-0.024,9.113,1.876,12.321,5.248c3.314,3.242,5.161,7.697,5.112,12.333
		C38.405,25.871,36.563,30.303,33.278,33.55z"/>
</g>
</svg>
